<svg width="376" height="338" viewBox="0 0 376 338" fill="none" xmlns="http://www.w3.org/2000/svg">
<g clip-path="url(#clip0_668_28)">
<rect width="376" height="338" fill="#D6D6D6"/>
<rect width="602" height="792" fill="black"/>
<path d="M89.2 77.608C96.304 77.608 102.512 79.016 107.824 81.832C113.136 84.648 117.232 88.616 120.112 93.736C123.056 98.792 124.528 104.648 124.528 111.304C124.528 117.896 123.056 123.752 120.112 128.872C117.232 133.992 113.104 137.96 107.728 140.776C102.416 143.592 96.24 145 89.2 145H63.952V77.608H89.2ZM88.144 130.792C94.352 130.792 99.184 129.096 102.64 125.704C106.096 122.312 107.824 117.512 107.824 111.304C107.824 105.096 106.096 100.264 102.64 96.808C99.184 93.352 94.352 91.624 88.144 91.624H80.368V130.792H88.144ZM151.558 90.76V104.392H173.542V117.064H151.558V131.848H176.422V145H135.142V77.608H176.422V90.76H151.558ZM204.935 132.328H226.439V145H188.519V77.608H204.935V132.328ZM252.126 77.608V145H235.71V77.608H252.126Z" fill="white"/>
<path d="M107.824 201.608V214.76H80.368V228.968H100.912V241.736H80.368V269H63.952V201.608H107.824ZM149.764 269.672C143.428 269.672 137.604 268.2 132.292 265.256C127.044 262.312 122.852 258.216 119.716 252.968C116.644 247.656 115.108 241.704 115.108 235.112C115.108 228.52 116.644 222.6 119.716 217.352C122.852 212.104 127.044 208.008 132.292 205.064C137.604 202.12 143.428 200.648 149.764 200.648C156.1 200.648 161.892 202.12 167.14 205.064C172.452 208.008 176.612 212.104 179.62 217.352C182.692 222.6 184.228 228.52 184.228 235.112C184.228 241.704 182.692 247.656 179.62 252.968C176.548 258.216 172.388 262.312 167.14 265.256C161.892 268.2 156.1 269.672 149.764 269.672ZM149.764 254.696C155.14 254.696 159.428 252.904 162.628 249.32C165.892 245.736 167.524 241 167.524 235.112C167.524 229.16 165.892 224.424 162.628 220.904C159.428 217.32 155.14 215.528 149.764 215.528C144.324 215.528 139.972 217.288 136.708 220.808C133.508 224.328 131.908 229.096 131.908 235.112C131.908 241.064 133.508 245.832 136.708 249.416C139.972 252.936 144.324 254.696 149.764 254.696ZM226.673 269.672C220.337 269.672 214.513 268.2 209.201 265.256C203.953 262.312 199.761 258.216 196.625 252.968C193.553 247.656 192.017 241.704 192.017 235.112C192.017 228.52 193.553 222.6 196.625 217.352C199.761 212.104 203.953 208.008 209.201 205.064C214.513 202.12 220.337 200.648 226.673 200.648C233.009 200.648 238.801 202.12 244.049 205.064C249.361 208.008 253.521 212.104 256.529 217.352C259.601 222.6 261.137 228.52 261.137 235.112C261.137 241.704 259.601 247.656 256.529 252.968C253.457 258.216 249.297 262.312 244.049 265.256C238.801 268.2 233.009 269.672 226.673 269.672ZM226.673 254.696C232.049 254.696 236.337 252.904 239.537 249.32C242.801 245.736 244.433 241 244.433 235.112C244.433 229.16 242.801 224.424 239.537 220.904C236.337 217.32 232.049 215.528 226.673 215.528C221.233 215.528 216.881 217.288 213.617 220.808C210.417 224.328 208.817 229.096 208.817 235.112C208.817 241.064 210.417 245.832 213.617 249.416C216.881 252.936 221.233 254.696 226.673 254.696ZM296.958 201.608C304.062 201.608 310.27 203.016 315.582 205.832C320.894 208.648 324.99 212.616 327.87 217.736C330.814 222.792 332.286 228.648 332.286 235.304C332.286 241.896 330.814 247.752 327.87 252.872C324.99 257.992 320.862 261.96 315.486 264.776C310.174 267.592 303.998 269 296.958 269H271.71V201.608H296.958ZM295.902 254.792C302.11 254.792 306.942 253.096 310.398 249.704C313.854 246.312 315.582 241.512 315.582 235.304C315.582 229.096 313.854 224.264 310.398 220.808C306.942 217.352 302.11 215.624 295.902 215.624H288.126V254.792H295.902Z" fill="#B113CB"/>
</g>
<defs>
<clipPath id="clip0_668_28">
<rect width="376" height="338" fill="white"/>
</clipPath>
</defs>
</svg>
